<svg xmlns="http://www.w3.org/2000/svg" viewBox="0 0 1024 1024" width="1024" height="1024">
  <defs>
    <linearGradient id="bg" x1="0" y1="0" x2="0" y2="1">
      <stop offset="0" stop-color="#BEE6F9"/><stop offset="1" stop-color="#57ABD8"/>
    </linearGradient>
    <linearGradient id="ringFlat" x1="0" y1="0" x2="0" y2="1">
      <stop offset="0" stop-color="#FF8A4C"/><stop offset="1" stop-color="#F15A2B"/>
    </linearGradient>
    <radialGradient id="ringVol" cx="512" cy="512" r="400.0" gradientUnits="userSpaceOnUse">
      <stop offset="0.490" stop-color="#DA4F1E"/>
      <stop offset="0.62" stop-color="#FB7A3E"/>
      <stop offset="0.745" stop-color="#FF9A5C"/>
      <stop offset="0.88" stop-color="#EF6230"/>
      <stop offset="1" stop-color="#D3451A"/>
    </radialGradient>
    <linearGradient id="hole" x1="0" y1="0" x2="0" y2="1">
      <stop offset="0" stop-color="#CBEBFB"/><stop offset="1" stop-color="#8FCEEC"/>
    </linearGradient>
    <path id="ann" fill-rule="evenodd" clip-rule="evenodd" d="M112.0,512.0 a400.0,400.0 0 1,0 800.0,0 a400.0,400.0 0 1,0 -800.0,0 Z M316.0,512.0 a196.0,196.0 0 1,0 392.0,0 a196.0,196.0 0 1,0 -392.0,0 Z"/>
    <clipPath id="clip"><use href="#ann"/></clipPath>
  </defs>
  <rect width="1024" height="1024" rx="230" fill="url(#bg)"/>
  <circle cx="512" cy="512" r="196.0" fill="url(#hole)"/>
  <path d="M795.5,795.5 C758.2,832.9 717.7,874.4 670.4,894.5 C623.2,914.6 564.8,916.0 512.0,916.0 C459.2,916.0 400.8,914.6 353.6,894.5 C306.3,874.4 265.8,832.9 228.5,795.5 C191.1,758.2 149.6,717.7 129.5,670.4 C109.4,623.2 108.0,564.8 108.0,512.0 C108.0,459.2 109.4,400.8 129.5,353.6 C149.6,306.3 191.1,265.8 228.5,228.5 C265.8,191.1 306.3,149.6 353.6,129.5 C400.8,109.4 459.2,108.0 512.0,108.0 C564.8,108.0 623.2,109.4 670.4,129.5 C717.7,149.6 758.2,191.1 795.5,228.5 C832.9,265.8 874.4,306.3 894.5,353.6 C914.6,400.8 916.0,459.2 916.0,512.0 C916.0,564.8 914.6,623.2 894.5,670.4 C874.4,717.7 832.9,758.2 795.5,795.5 Z" fill="none" stroke="#2F5D74" stroke-opacity="0.9" stroke-width="11" stroke-linejoin="round"/><path d="M795.5,795.5 C758.2,832.9 717.7,874.4 670.4,894.5 C623.2,914.6 564.8,916.0 512.0,916.0 C459.2,916.0 400.8,914.6 353.6,894.5 C306.3,874.4 265.8,832.9 228.5,795.5 C191.1,758.2 149.6,717.7 129.5,670.4 C109.4,623.2 108.0,564.8 108.0,512.0 C108.0,459.2 109.4,400.8 129.5,353.6 C149.6,306.3 191.1,265.8 228.5,228.5 C265.8,191.1 306.3,149.6 353.6,129.5 C400.8,109.4 459.2,108.0 512.0,108.0 C564.8,108.0 623.2,109.4 670.4,129.5 C717.7,149.6 758.2,191.1 795.5,228.5 C832.9,265.8 874.4,306.3 894.5,353.6 C914.6,400.8 916.0,459.2 916.0,512.0 C916.0,564.8 914.6,623.2 894.5,670.4 C874.4,717.7 832.9,758.2 795.5,795.5 Z" fill="none" stroke="#EFE3C6" stroke-width="6" stroke-linejoin="round"/>
  <use href="#ann" fill="url(#ringFlat)"/>
  <g clip-path="url(#clip)" fill="#FFFFFF"><rect x="112.0" y="457.0" width="800.0" height="110.0" transform="rotate(45 512 512)"/><rect x="112.0" y="457.0" width="800.0" height="110.0" transform="rotate(-45 512 512)"/></g>
  <rect x="790.6" y="760.1" width="17" height="78" rx="8" transform="rotate(45 799.1 799.1)" fill="#FFFFFF" stroke="#2F5D74" stroke-opacity="0.9" stroke-width="2.5"/><rect x="216.4" y="760.1" width="17" height="78" rx="8" transform="rotate(135 224.9 799.1)" fill="#FFFFFF" stroke="#2F5D74" stroke-opacity="0.9" stroke-width="2.5"/><rect x="216.4" y="185.9" width="17" height="78" rx="8" transform="rotate(225 224.9 224.9)" fill="#FFFFFF" stroke="#2F5D74" stroke-opacity="0.9" stroke-width="2.5"/><rect x="790.6" y="185.9" width="17" height="78" rx="8" transform="rotate(315 799.1 224.9)" fill="#FFFFFF" stroke="#2F5D74" stroke-opacity="0.9" stroke-width="2.5"/>
  <circle cx="512" cy="512" r="400.0" fill="none" stroke="#1F5E82" stroke-opacity="0.28" stroke-width="4"/><circle cx="512" cy="512" r="196.0" fill="none" stroke="#1F5E82" stroke-opacity="0.22" stroke-width="4"/>
  <path fill="#FFFFFF" fill-rule="evenodd" d="M386.36,756.79L366.79,794.91L394.36,807.44L397.29,800.08L378.64,791.94L393.66,760.41L386.36,756.79Z M416.90,770.20L402.10,810.40L410.98,813.53L424.59,772.90L416.90,770.20Z M433.90,775.84L421.74,816.92L430.82,819.46L435.33,802.35L451.83,806.21L453.29,799.04L437.20,795.28L439.73,785.70L457.69,789.82L459.21,782.04L433.90,775.84Z M467.72,812.54L459.12,811.14L458.99,811.91L458.89,812.66L458.82,813.40L458.79,814.12L458.79,814.83L458.82,815.52L458.89,816.19L459.00,816.85L459.14,817.50L459.31,818.12L459.51,818.73L459.74,819.32L460.00,819.90L460.27,820.46L460.58,821.00L460.90,821.52L461.26,822.03L461.64,822.52L462.04,822.99L462.47,823.44L462.92,823.88L463.39,824.30L463.88,824.70L464.40,825.09L464.93,825.45L465.48,825.80L466.05,826.13L466.63,826.44L467.24,826.73L467.87,827.00L468.51,827.26L469.15,827.50L469.81,827.72L470.47,827.92L471.14,828.10L471.81,828.27L472.49,828.42L473.18,828.55L473.88,828.66L474.58,828.75L475.45,828.84L476.29,828.91L477.12,828.95L477.92,828.96L478.71,828.96L479.48,828.92L480.23,828.87L480.96,828.79L481.67,828.68L482.36,828.55L483.03,828.40L483.68,828.23L484.31,828.04L484.92,827.84L485.51,827.61L486.08,827.36L486.62,827.10L487.15,826.81L487.65,826.51L488.13,826.19L488.60,825.85L489.03,825.49L489.45,825.12L489.85,824.74L490.22,824.34L490.57,823.92L490.91,823.48L491.21,823.04L491.50,822.57L491.77,822.09L492.01,821.60L492.23,821.09L492.43,820.57L492.61,820.05L492.77,819.52L492.90,818.97L493.01,818.42L493.10,817.86L493.17,817.28L493.22,816.70L493.25,816.00L493.24,815.32L493.21,814.66L493.15,814.02L493.06,813.41L492.93,812.83L492.78,812.26L492.60,811.72L492.38,811.21L492.14,810.72L491.88,810.24L491.61,809.79L491.32,809.35L491.02,808.94L490.72,808.53L490.40,808.15L490.07,807.78L489.73,807.44L489.37,807.11L489.01,806.79L488.64,806.49L488.27,806.21L487.91,805.94L487.53,805.68L487.16,805.44L486.79,805.21L486.42,805.00L486.04,804.80L485.66,804.62L485.28,804.45L484.91,804.30L484.56,804.15L484.22,804.01L483.90,803.88L483.59,803.76L483.31,803.65L483.03,803.55L482.78,803.45L482.54,803.36L482.31,803.29L481.61,803.02L480.94,802.75L480.30,802.49L479.68,802.25L479.09,802.01L478.53,801.78L477.99,801.56L477.49,801.35L477.01,801.15L476.56,800.96L476.13,800.77L475.73,800.59L475.34,800.40L474.97,800.22L474.63,800.04L474.30,799.87L473.99,799.69L473.70,799.52L473.44,799.35L473.19,799.19L472.96,799.02L472.75,798.86L472.56,798.69L472.38,798.53L472.22,798.36L472.08,798.19L471.95,798.03L471.85,797.86L471.75,797.69L471.68,797.53L471.62,797.36L471.58,797.18L471.54,796.99L471.51,796.79L471.49,796.59L471.48,796.38L471.49,796.15L471.50,795.93L471.52,795.69L471.55,795.44L471.59,795.17L471.65,794.92L471.71,794.67L471.78,794.44L471.86,794.22L471.95,794.01L472.05,793.81L472.15,793.62L472.27,793.44L472.39,793.27L472.53,793.11L472.67,792.96L472.81,792.81L472.96,792.67L473.12,792.54L473.27,792.41L473.44,792.29L473.60,792.18L473.78,792.07L473.95,791.97L474.13,791.88L474.32,791.79L474.51,791.71L474.70,791.64L474.89,791.58L475.08,791.52L475.28,791.48L475.48,791.44L475.68,791.40L475.89,791.38L476.10,791.36L476.30,791.34L476.51,791.33L476.71,791.32L476.92,791.32L477.12,791.32L477.32,791.33L477.52,791.34L477.72,791.36L477.93,791.38L478.23,791.42L478.52,791.47L478.82,791.52L479.10,791.57L479.38,791.64L479.66,791.70L479.93,791.77L480.19,791.85L480.45,791.93L480.71,792.02L480.96,792.11L481.20,792.21L481.43,792.32L481.66,792.43L481.89,792.56L482.10,792.69L482.31,792.82L482.51,792.97L482.71,793.12L482.90,793.28L483.08,793.45L483.26,793.63L483.42,793.82L483.58,794.02L483.72,794.22L483.86,794.44L483.99,794.67L484.11,794.91L484.22,795.16L484.33,795.42L484.42,795.68L484.50,795.96L484.57,796.26L484.63,796.56L484.68,796.88L484.71,797.21L484.74,797.55L484.75,797.90L484.76,798.27L484.75,798.65L492.98,799.31L493.02,798.58L493.03,797.87L493.01,797.17L492.97,796.50L492.89,795.85L492.80,795.22L492.67,794.61L492.52,794.03L492.35,793.46L492.15,792.91L491.93,792.38L491.69,791.87L491.43,791.37L491.16,790.89L490.86,790.43L490.55,789.99L490.23,789.56L489.88,789.15L489.52,788.76L489.13,788.38L488.74,788.02L488.33,787.68L487.91,787.35L487.48,787.04L487.04,786.74L486.58,786.47L486.11,786.21L485.62,785.96L485.12,785.73L484.61,785.52L484.10,785.33L483.57,785.15L483.04,784.98L482.51,784.82L481.97,784.68L481.42,784.55L480.87,784.44L480.31,784.33L479.74,784.24L479.17,784.17L478.68,784.12L478.18,784.08L477.68,784.05L477.18,784.05L476.68,784.05L476.17,784.07L475.67,784.11L475.16,784.16L474.65,784.22L474.14,784.30L473.63,784.40L473.12,784.51L472.63,784.64L472.14,784.78L471.66,784.95L471.18,785.13L470.72,785.33L470.26,785.54L469.80,785.78L469.36,786.03L468.92,786.30L468.49,786.58L468.08,786.88L467.68,787.20L467.28,787.54L466.90,787.90L466.54,788.27L466.18,788.66L465.83,789.08L465.50,789.51L465.18,789.95L464.89,790.42L464.62,790.91L464.36,791.42L464.13,791.95L463.92,792.51L463.74,793.08L463.57,793.68L463.42,794.29L463.30,794.93L463.21,795.51L463.15,796.07L463.10,796.62L463.08,797.15L463.09,797.67L463.11,798.18L463.16,798.67L463.24,799.15L463.33,799.61L463.45,800.06L463.59,800.50L463.75,800.92L463.92,801.33L464.11,801.73L464.31,802.12L464.52,802.50L464.76,802.86L465.00,803.22L465.27,803.56L465.55,803.89L465.84,804.21L466.15,804.52L466.46,804.82L466.79,805.12L467.13,805.40L467.48,805.68L467.84,805.94L468.21,806.20L468.59,806.45L468.98,806.69L469.38,806.92L469.79,807.15L470.19,807.37L470.60,807.58L471.01,807.79L471.43,807.99L471.85,808.19L472.27,808.38L472.70,808.57L473.13,808.75L473.55,808.93L473.97,809.11L474.39,809.30L474.80,809.47L475.22,809.65L475.64,809.82L476.06,809.99L476.48,810.15L476.89,810.32L477.31,810.47L477.72,810.63L478.12,810.79L478.51,810.95L478.90,811.11L479.27,811.28L479.64,811.45L480.00,811.62L480.34,811.79L480.68,811.96L481.01,812.14L481.33,812.32L481.63,812.51L481.92,812.70L482.20,812.90L482.46,813.10L482.72,813.31L482.95,813.53L483.18,813.75L483.39,813.98L483.58,814.21L483.76,814.45L483.92,814.70L484.06,814.97L484.17,815.24L484.26,815.52L484.33,815.82L484.38,816.13L484.40,816.44L484.41,816.77L484.39,817.11L484.35,817.43L484.30,817.73L484.23,818.02L484.15,818.30L484.05,818.57L483.94,818.82L483.81,819.06L483.66,819.29L483.50,819.50L483.33,819.70L483.14,819.89L482.95,820.07L482.75,820.24L482.55,820.40L482.33,820.55L482.11,820.69L481.88,820.82L481.64,820.94L481.39,821.05L481.14,821.15L480.88,821.24L480.62,821.32L480.36,821.40L480.09,821.46L479.82,821.52L479.55,821.57L479.27,821.61L478.99,821.64L478.71,821.67L478.42,821.69L478.14,821.69L477.86,821.70L477.59,821.70L477.32,821.69L477.05,821.69L476.79,821.68L476.53,821.66L476.28,821.64L476.03,821.62L475.78,821.59L475.42,821.55L475.07,821.49L474.71,821.42L474.36,821.35L474.01,821.27L473.67,821.17L473.33,821.07L472.99,820.96L472.66,820.84L472.33,820.71L472.01,820.57L471.70,820.43L471.40,820.27L471.11,820.11L470.83,819.94L470.56,819.76L470.30,819.57L470.05,819.38L469.81,819.17L469.58,818.96L469.36,818.73L469.16,818.50L468.96,818.25L468.78,818.00L468.61,817.73L468.45,817.46L468.31,817.18L468.17,816.88L468.05,816.58L467.94,816.26L467.84,815.94L467.76,815.60L467.69,815.26L467.65,814.90L467.62,814.54L467.61,814.16L467.61,813.77L467.63,813.37L467.67,812.96L467.72,812.54Z M511.81,813.44L516.83,797.68L516.94,797.68L522.34,813.26L511.81,813.44Z M512.61,787.16L496.51,829.62L505.98,829.94L509.42,820.44L524.95,820.18L528.59,829.57L538.34,828.91L520.96,787.01L512.61,787.16Z M564.77,825.59L569.74,781.03L561.50,782.67L557.77,813.83L557.65,813.85L544.96,785.17L536.65,786.05L554.27,827.18L564.77,825.59Z M575.36,779.76L585.23,821.45L616.43,812.36L613.83,804.88L592.31,811.50L589.59,801.36L608.29,795.68L605.94,788.76L587.70,794.29L585.32,785.42L604.57,779.51L601.98,772.03L575.36,779.76Z M624.98,784.02L620.36,772.88L628.76,769.23L629.28,769.01L629.78,768.82L630.27,768.67L630.74,768.56L631.20,768.49L631.64,768.46L632.07,768.46L632.49,768.49L632.89,768.57L633.27,768.68L633.65,768.84L634.02,769.03L634.37,769.27L634.72,769.55L635.05,769.87L635.37,770.24L635.68,770.65L635.98,771.11L636.27,771.61L636.54,772.15L636.80,772.72L637.02,773.28L637.19,773.81L637.32,774.33L637.41,774.82L637.46,775.30L637.46,775.76L637.42,776.20L637.34,776.62L637.21,777.02L637.05,777.40L636.84,777.77L636.60,778.12L636.31,778.46L635.98,778.79L635.61,779.10L635.21,779.40L634.76,779.68L634.27,779.95L633.74,780.21L624.98,784.02Z M609.97,769.12L625.23,809.16L633.98,805.68L627.56,790.22L635.75,786.68L636.35,786.42L636.93,786.21L637.48,786.04L638.02,785.92L638.53,785.83L639.03,785.80L639.50,785.80L639.95,785.85L640.39,785.94L640.80,786.07L641.20,786.25L641.60,786.46L641.99,786.72L642.38,787.01L642.77,787.35L643.16,787.73L643.54,788.15L643.92,788.62L644.30,789.12L644.68,789.66L644.96,790.10L645.24,790.55L645.53,791.00L645.81,791.45L646.09,791.92L646.37,792.38L646.65,792.86L646.93,793.34L647.20,793.82L647.48,794.32L647.76,794.80L648.04,795.26L648.33,795.70L648.62,796.13L648.91,796.53L649.21,796.92L649.52,797.29L649.82,797.64L650.14,797.97L650.45,798.28L658.87,794.05L658.67,793.95L658.47,793.83L658.28,793.71L658.08,793.58L657.89,793.43L657.71,793.28L657.52,793.12L657.34,792.94L657.16,792.76L656.98,792.57L656.81,792.36L656.63,792.16L656.46,791.95L656.29,791.73L656.12,791.51L655.95,791.29L655.79,791.06L655.62,790.83L655.46,790.60L655.30,790.36L655.15,790.11L654.99,789.87L654.84,789.63L654.69,789.39L654.55,789.15L654.40,788.91L654.26,788.67L654.12,788.43L653.98,788.19L653.84,787.95L653.70,787.71L653.57,787.48L653.44,787.25L653.32,787.03L653.19,786.82L653.07,786.62L652.96,786.42L652.85,786.23L652.74,786.04L652.63,785.86L652.46,785.58L652.29,785.31L652.11,785.03L651.93,784.76L651.75,784.49L651.56,784.23L651.37,783.96L651.17,783.70L650.97,783.44L650.77,783.18L650.56,782.93L650.35,782.68L650.14,782.44L649.92,782.21L649.70,781.98L649.47,781.77L649.24,781.56L649.01,781.36L648.77,781.17L648.53,780.99L648.28,780.81L648.03,780.65L647.78,780.49L647.52,780.35L647.26,780.21L647.00,780.09L646.73,779.97L646.46,779.87L646.19,779.77L645.91,779.69L645.62,779.61L645.33,779.55L645.04,779.50L644.74,779.47L644.44,779.45L644.13,779.45L643.81,779.46L643.49,779.48L643.17,779.52L642.84,779.57L642.78,779.46L643.24,778.90L643.64,778.33L644.00,777.76L644.32,777.18L644.59,776.59L644.81,776.00L644.98,775.40L645.11,774.79L645.19,774.18L645.23,773.56L645.22,772.93L645.18,772.29L645.10,771.66L644.98,771.01L644.83,770.37L644.64,769.72L644.42,769.06L644.16,768.40L643.86,767.74L643.53,767.07L643.30,766.63L643.06,766.21L642.81,765.81L642.54,765.42L642.27,765.04L641.98,764.67L641.69,764.32L641.38,763.98L641.07,763.65L640.74,763.34L640.40,763.04L640.06,762.75L639.72,762.48L639.36,762.22L639.00,761.98L638.62,761.76L638.24,761.54L637.86,761.35L637.46,761.17L637.06,761.00L636.66,760.85L636.25,760.71L635.83,760.59L635.41,760.49L634.99,760.41L634.57,760.34L634.14,760.30L633.71,760.26L633.27,760.25L632.83,760.25L632.39,760.27L631.95,760.30L631.50,760.36L631.06,760.44L630.62,760.54L630.17,760.66L629.72,760.80L629.27,760.96L628.82,761.14L628.37,761.34L609.97,769.12Z"/>
</svg>
